<?xml version="1.0" encoding="UTF-8" standalone="no"?>
<svg
   xmlns:dc="http://purl.org/dc/elements/1.1/"
   xmlns:cc="http://creativecommons.org/ns#"
   xmlns:rdf="http://www.w3.org/1999/02/22-rdf-syntax-ns#"
   xmlns:svg="http://www.w3.org/2000/svg"
   xmlns="http://www.w3.org/2000/svg"
   viewBox="0 0 6106.6265 2160.96"
   height="2160.96"
   width="6106.6265"
   xml:space="preserve"
   id="svg2"
   version="1.1"><metadata
     id="metadata8"><rdf:RDF><cc:Work
         rdf:about=""><dc:format>image/svg+xml</dc:format><dc:type
           rdf:resource="http://purl.org/dc/dcmitype/StillImage" /></cc:Work></rdf:RDF></metadata><defs
     id="defs6"><clipPath
       id="clipPath18"
       clipPathUnits="userSpaceOnUse"><path
         id="path16"
         d="M 0,1620.724 H 4579.972 V 0 H 0 Z" /></clipPath></defs><g
     transform="matrix(1.3333333,0,0,-1.3333333,0,2160.96)"
     id="g10"><g
       id="g12"><g
         clip-path="url(#clipPath18)"
         id="g14"><g
           transform="translate(4210.1045,968.7205)"
           id="g20"><path
             id="path22"
             style="fill:#e91b23;fill-opacity:1;fill-rule:nonzero;stroke:none"
             d="m 0,0 v -144.248 h 79.978 v -106.4 H 0 v -134.344 c 0,-16.16 1.545,-26.851 4.643,-32.075 4.751,-8.075 13.081,-12.112 24.99,-12.112 10.706,0 25.711,3.082 44.986,9.271 l 10.715,-100.324 c -35.944,-7.857 -69.512,-11.785 -100.689,-11.785 -36.183,0 -62.842,4.644 -79.977,13.913 -17.148,9.268 -29.817,23.35 -38.039,42.252 -8.206,18.906 -12.312,49.516 -12.312,91.831 v 133.373 h -53.558 v 106.4 h 53.558 v 69.628 z" /></g><path
           id="path24"
           style="fill:#e91b23;fill-opacity:1;fill-rule:nonzero;stroke:none"
           d="m 4364.715,824.472 h 145.326 v -379.2 h -145.326 z m 0,144.246 h 145.326 v -98.902 h -145.326 z" /><g
           transform="translate(1413.0016,952.0599)"
           id="g26"><path
             id="path28"
             style="fill:#231f20;fill-opacity:1;fill-rule:evenodd;stroke:none"
             d="m 0,0 v -41.82 h 202.851 v 15.682 c 0,75.286 0,75.286 215.389,75.286 179.84,0 194.474,-4.184 194.474,-57.51 0,-48.092 -24.042,-58.549 -128.605,-58.549 H 323.093 v -149.518 h 122.332 c 126.516,-2.089 131.741,-2.089 149.519,-6.275 21.955,-6.28 31.371,-21.961 31.371,-53.331 0,-39.733 -13.601,-53.326 -57.51,-58.549 -16.737,-2.089 -118.156,-5.225 -156.84,-5.225 -72.15,0 -162.07,3.136 -174.615,5.225 -29.275,7.321 -36.596,20.913 -36.596,77.367 l -1.041,12.552 H -2.088 c 0,-131.74 9.4,-171.471 45.995,-205.978 43.925,-39.732 117.107,-53.334 294.861,-53.334 224.804,0 334.591,7.328 390.004,26.139 76.336,26.144 103.521,71.102 103.521,174.616 0,116.067 -19.873,142.206 -126.522,166.255 86.785,17.779 112.923,52.278 112.923,150.56 0,83.649 -16.722,127.571 -60.639,157.886 C 714.14,201.802 645.125,210.17 443.33,210.17 58.548,210.17 0,182.985 0,0" /></g><g
           transform="translate(2276.6201,1025.2507)"
           id="g30"><path
             id="path32"
             style="fill:#231f20;fill-opacity:1;fill-rule:evenodd;stroke:none"
             d="m 0,0 c -10.457,-46.005 -12.545,-81.553 -12.545,-197.611 0,-232.12 8.36,-280.22 55.421,-324.135 47.045,-42.869 119.194,-55.422 319.951,-55.422 215.388,0 299.037,5.233 343.992,23.01 72.151,27.187 98.289,83.648 98.289,209.116 0,188.21 -58.557,227.943 -332.503,227.943 -182.968,0 -228.981,-10.457 -282.299,-61.687 -1.047,16.723 -1.047,30.315 -1.047,38.684 0,66.911 7.319,92.009 29.274,103.507 23.003,10.464 79.456,15.696 181.929,15.696 33.46,0 73.19,-1.047 118.156,-3.144 64.83,-2.088 71.103,-3.136 81.551,-11.505 7.321,-5.224 10.466,-12.545 11.507,-31.362 H 810.333 C 809.286,21.962 801.973,54.372 776.875,80.52 736.104,124.434 657.678,136.979 420.328,136.979 105.61,136.979 25.098,110.841 0,0 m 234.215,-414.048 c -29.275,6.273 -40.773,26.139 -40.773,66.918 0,31.362 11.498,53.324 33.451,62.735 19.867,8.359 43.917,10.448 144.294,10.448 217.486,0 227.934,-3.137 227.934,-74.231 0,-44.965 -14.625,-63.781 -51.229,-66.919 -21.953,-2.088 -119.195,-5.224 -181.938,-5.224 -70.047,0 -116.05,2.096 -131.739,6.273" /></g><g
           transform="translate(3119.335,646.0233)"
           id="g34"><path
             id="path36"
             style="fill:#231f20;fill-opacity:1;fill-rule:evenodd;stroke:none"
             d="m 0,0 v -1.362 c 0,-109.787 31.37,-157.879 111.874,-176.704 70.054,-15.691 142.197,-19.874 354.457,-19.874 158.937,0 214.35,6.272 269.763,28.234 72.143,29.282 99.338,90.969 99.338,228.989 0,191.339 -57.52,228.984 -352.37,228.984 -92.009,0 -170.442,-5.233 -203.893,-13.593 -27.186,-6.274 -38.69,-12.546 -67.965,-38.684 2.096,16.729 2.096,26.138 2.096,52.277 v 75.279 c 15.68,-3.129 47.052,-5.217 87.831,-5.217 H 349.225 803.02 V 507.838 H 27.186 V 85.422 H 213.3 v 8.369 c 0,36.589 28.226,44.949 151.614,44.949 90.96,0 189.242,-4.183 220.613,-10.458 34.507,-6.264 43.917,-23.002 43.917,-75.27 0,-55.422 -6.273,-77.377 -26.147,-86.784 -20.905,-9.416 -40.764,-10.457 -193.427,-10.457 -128.612,0 -178.792,5.232 -194.482,19.864 -8.361,7.315 -11.504,20.907 -12.545,50.191 H 1.04 C 0.096,15.397 0.009,4.971 0,0" /></g><g
           transform="translate(695.4908,1430.1663)"
           id="g38"><path
             id="path40"
             style="fill:#dd1a21;fill-opacity:1;fill-rule:evenodd;stroke:none"
             d="m 0,0 c 349.633,0 633.063,-277.496 633.063,-619.804 0,-342.31 -283.43,-619.804 -633.063,-619.804 -349.63,0 -633.06,277.494 -633.06,619.804 C -633.06,-277.496 -349.63,0 0,0" /></g><g
           transform="translate(695.4908,1369.0325)"
           id="g42"><path
             id="path44"
             style="fill:#231f20;fill-opacity:1;fill-rule:evenodd;stroke:none"
             d="m 0,0 c 315.148,0 570.622,-250.125 570.622,-558.67 0,-308.546 -255.474,-558.67 -570.622,-558.67 -315.144,0 -570.619,250.124 -570.619,558.67 C -570.619,-250.125 -315.144,0 0,0" /></g><g
           transform="translate(695.4908,1303.5251)"
           id="g46"><path
             id="path48"
             style="fill:#ffffff;fill-opacity:1;fill-rule:evenodd;stroke:none"
             d="m 0,0 c 278.193,0 503.713,-220.797 503.713,-493.163 0,-272.365 -225.52,-493.163 -503.713,-493.163 -250.569,0 -458.372,179.139 -497.174,413.735 h 104.107 c 7.845,-4.208 11.784,-11.958 14.106,-18.465 18.865,-52.834 72.856,-57.848 100.434,-26.926 33.051,37.057 13.71,101.623 -64.717,100.081 v 75.69 c 30.428,6.256 57.26,16.236 57.806,53.12 0.496,33.768 -58.397,62.858 -82.608,13.1 -4.173,-8.578 -13.578,-19.301 -24.326,-23.381 H -494.573 C -449.827,-171.868 -245.428,0 0,0" /></g><g
           transform="translate(830.6422,1179.2781)"
           id="g50"><path
             id="path52"
             style="fill:#231f20;fill-opacity:1;fill-rule:evenodd;stroke:none"
             d="M 0,0 C 119.821,-40 213.602,-137.38 249.151,-259.749 H 72.06 C 67.815,-137.481 -45.151,-80.2 -129.836,-103.999 -93.782,-43.134 -58.12,1.967 0,0 m 264.613,-367.463 0.017,-1.453 c 0,-25.058 -2.387,-49.548 -6.892,-73.285 -32.757,21.151 -86.988,38.305 -159.411,36.166 l 7.641,38.572 z M 11.936,-733.638 c -41.684,-15.467 -86.743,-23.922 -133.767,-23.922 -119.885,0 -227.018,54.902 -297.903,141.063 83.001,9.285 136.739,58.104 150.161,122.396 12.518,59.959 -3.369,111.636 -64.231,149.383 7.392,6.764 15.934,17.837 22.202,25.018 67.104,-129.006 210.047,-145.746 310.585,-81.609 l -12.372,-105.891 85.43,5.889 c 24.923,1.718 49.743,-3.15 64.496,-13.166 54.805,-37.217 40.246,-117.239 -30.569,-123.725 -46.608,-4.271 -96.97,30.233 -133.913,42.211 -35.357,-78.383 -44.43,-113.247 39.881,-137.647 m -418.11,627.899 c 57.243,62.515 134.61,106.092 221.763,120.369 -64.184,-54.377 -101.269,-156.913 -118.642,-191.409 -23.322,31.528 -60.5,59.258 -103.121,71.04 m 281.823,-86.413 c 40.797,0 73.872,-33.075 73.872,-73.872 0,-40.796 -33.075,-73.871 -73.872,-73.871 -40.796,0 -73.87,33.075 -73.87,73.871 0,40.797 33.074,73.872 73.87,73.872" /></g><g
           transform="translate(526.4776,1012.8895)"
           id="g54"><path
             id="path56"
             style="fill:#dd1a21;fill-opacity:1;fill-rule:evenodd;stroke:none"
             d="M 0,0 C -23.76,29.093 -56.518,51.666 -91.941,63.345 -39.468,118.047 28.551,156.112 102.001,172.044 56.472,126.026 26.242,58.462 7.49,16.558 4.753,10.436 2.244,4.833 0,0 M 381.471,-87.862 C 375.148,16.792 291.004,73.182 213.6,73.182 c -9.484,0 -18.805,-0.842 -27.849,-2.506 34.468,56.04 66.722,90.273 114.775,90.273 0.884,0 1.77,-0.012 2.661,-0.034 C 419.229,121.906 509.453,29.264 545.915,-87.862 Z m -201.657,-80.141 c -37.697,0 -68.371,30.67 -68.371,68.367 0,37.698 30.674,68.371 68.371,68.371 37.698,0 68.372,-30.673 68.372,-68.371 0,-37.697 -30.674,-68.367 -68.372,-68.367 m 378.09,-98.934 c -24.146,13.933 -70.482,32.97 -143.277,32.97 -1.793,0 -3.597,-0.008 -5.409,-0.031 l 5.432,27.422 h 148.622 c -0.208,-20.152 -2.009,-40.416 -5.368,-60.361 m -375.572,-318.73 c -110.599,0 -214.704,47.77 -287.214,131.428 77.002,11.834 130.821,58.163 144.861,125.408 13.479,64.577 -7.001,115.492 -60.888,151.427 4.037,4.291 8.131,9.196 11.876,13.684 0.193,0.235 0.39,0.47 0.584,0.705 40.548,-72.446 108.858,-113.794 188.59,-113.794 40.499,0 80.451,10.811 116.234,31.356 l -11.83,-101.3 92.04,6.338 c 3.176,0.22 6.353,0.326 9.503,0.326 20.685,0 39.945,-4.693 51.526,-12.547 24.312,-16.511 35.726,-43.827 29.073,-69.588 -6.436,-24.942 -27.766,-41.431 -57.056,-44.107 -2.521,-0.235 -5.06,-0.342 -7.596,-0.342 -28.683,-0.007 -59.285,14.071 -86.289,26.489 -13.476,6.194 -26.205,12.047 -37.827,15.815 l -4.689,1.523 -2.024,-4.495 c -20.158,-44.683 -33.524,-78.284 -21.773,-103.726 7.05,-15.269 22.501,-26.769 49.308,-36.382 -37.5,-12.1 -76.581,-18.218 -116.409,-18.218" /></g></g></g></g></svg>